<svg width="32" height="32" viewBox="0 0 32 32" fill="none" xmlns="http://www.w3.org/2000/svg">
<rect width="32" height="32" fill="white"/>
<path d="M13.0566 4C13.8747 4.00005 14.5381 4.66338 14.5381 5.48145V27.3779C14.5381 28.196 13.8747 28.8593 13.0566 28.8594H9.70312C7.65794 28.8593 6 27.2014 6 25.1562V7.70312C6 5.65793 7.65794 4.00006 9.70312 4H13.0566ZM21.5068 18.916C23.552 18.9161 25.21 20.5739 25.21 22.6191V27.3789C25.2097 28.1968 24.5465 28.8594 23.7285 28.8594H22.9453C21.3983 28.8594 20.0142 27.8981 19.4746 26.4482L17.0439 19.915C16.8639 19.4311 17.222 18.916 17.7383 18.916H21.5068ZM20.0254 4C22.8887 4 25.21 6.32124 25.21 9.18457V13.082C25.2098 15.1271 23.5519 16.7851 21.5068 16.7852H17.4131C17.004 16.7852 16.6719 16.453 16.6719 16.0439V6.22168C16.6719 4.99459 17.6674 4 18.8945 4H20.0254Z" fill="black"/>
</svg>
